# xmcd
#
# Track frame offsets: 
#        150
#        21866
#        40659
#        59736
#        75071
#        93186
#        111979
#        128123
#        146818
#        166038
#
# Disc length: 2457 seconds
#
# Revision: 0
# Processed by: cddbd v1.5.2PL0 Copyright (c) Steve Scherf et al.
# Submitted via: ExactAudioCopy v0.95b3
#
DISCID=7809970a
DTITLE=W³odzimierz Mazoñ i Vis a Vis - Na przeciwko
DYEAR=2006
DGENRE=Ballad
TTITLE0=Patent
TTITLE1=Vis a Vis
TTITLE2=Ciep³o
TTITLE3=Feromony
TTITLE4=Cz³owieczek
TTITLE5=Pierwszy Krok
TTITLE6=Pobudka
TTITLE7=Lubiê
TTITLE8=£¹ka
TTITLE9=Babie Lato
EXTD=
EXTT0=
EXTT1=
EXTT2=
EXTT3=
EXTT4=
EXTT5=
EXTT6=
EXTT7=
EXTT8=
EXTT9=
PLAYORDER=
